<?xml version="1.0" encoding="UTF-8" standalone="no"?>
<!-- Created with Inkscape (http://www.inkscape.org/) -->

<svg
   width="130"
   height="130"
   viewBox="0 0 34.395833 34.395833"
   version="1.1"
   xmlns="http://www.w3.org/2000/svg"
   xmlns:svg="http://www.w3.org/2000/svg">
  <g>
    <path
       style="display:inline;opacity:0.4;fill:#f7931a;fill-opacity:1;stroke:#000000;stroke-width:0;stroke-linecap:butt;stroke-linejoin:round;stroke-miterlimit:3.3;stroke-dasharray:none;stroke-opacity:1;paint-order:normal"
       d="m 17.068792,8.4215724 5.683331,-18.8181684 -11.29708,-0.02557 z"
       id="path5077" />
    <g
       transform="translate(-11.858375,-6.7745056)"
       style="display:inline">
      <path
         style="display:inline;opacity:0.4;fill:#f7931a;fill-opacity:1;stroke:#000000;stroke-width:0;stroke-linecap:butt;stroke-linejoin:round;stroke-miterlimit:3.3;stroke-dasharray:none;stroke-opacity:1;paint-order:normal"
         d="m 28.983224,16.442106 -10.784212,-20.0730476 -7.211184,0.05503 z"
         id="path5079" />
      <path
         style="display:inline;opacity:0.4;fill:#f7931a;fill-opacity:1;stroke:#000000;stroke-width:0;stroke-linecap:butt;stroke-linejoin:round;stroke-miterlimit:3.3;stroke-dasharray:none;stroke-opacity:1;paint-order:normal"
         d="M 28.631841,16.2046 -1.9203502,-3.5898476 -1.9102782,5.5920768 Z"
         id="path5081" />
      <path
         style="display:inline;opacity:0.4;fill:#f7931a;fill-opacity:1;stroke:#000000;stroke-width:0;stroke-linecap:butt;stroke-linejoin:round;stroke-miterlimit:3.3;stroke-dasharray:none;stroke-opacity:1;paint-order:normal"
         d="m 28.413838,16.282953 -30.4059244,-2.244466 0.00334,7.455307 z"
         id="path5083" />
      <path
         style="display:inline;opacity:0.4;fill:#f7931a;fill-opacity:1;stroke:#000000;stroke-width:0;stroke-linecap:butt;stroke-linejoin:round;stroke-miterlimit:3.3;stroke-dasharray:none;stroke-opacity:1;paint-order:normal"
         d="M 28.474781,16.451851 -2.1543749,30.268967 -2.1181569,40.90378 Z"
         id="path5085" />
      <path
         style="display:inline;opacity:0.4;fill:#f7931a;fill-opacity:1;stroke:#000000;stroke-width:0;stroke-linecap:butt;stroke-linejoin:round;stroke-miterlimit:3.3;stroke-dasharray:none;stroke-opacity:1;paint-order:normal"
         d="M 28.963375,16.427819 -2.3897937,58.053283 -2.7735606,87.62098 Z"
         id="path5087" />
    </g>
    <g
       transform="matrix(-1,0,0,1,45.994725,-6.7774353)"
       style="display:inline">
      <path
         style="display:inline;opacity:0.4;fill:#f7931a;fill-opacity:1;stroke:#000000;stroke-width:0;stroke-linecap:butt;stroke-linejoin:round;stroke-miterlimit:3.3;stroke-dasharray:none;stroke-opacity:1;paint-order:normal"
         d="m 28.983224,16.442106 -10.784212,-20.0730476 -7.211184,0.05503 z"
         id="path1" />
      <path
         style="display:inline;opacity:0.4;fill:#f7931a;fill-opacity:1;stroke:#000000;stroke-width:0;stroke-linecap:butt;stroke-linejoin:round;stroke-miterlimit:3.3;stroke-dasharray:none;stroke-opacity:1;paint-order:normal"
         d="M 28.631841,16.2046 -1.9203502,-3.5898476 -1.9102782,5.5920768 Z"
         id="path2" />
      <path
         style="display:inline;opacity:0.4;fill:#f7931a;fill-opacity:1;stroke:#000000;stroke-width:0;stroke-linecap:butt;stroke-linejoin:round;stroke-miterlimit:3.3;stroke-dasharray:none;stroke-opacity:1;paint-order:normal"
         d="m 28.413838,16.282953 -30.4059244,-2.244466 0.00334,7.455307 z"
         id="path3" />
      <path
         style="display:inline;opacity:0.4;fill:#f7931a;fill-opacity:1;stroke:#000000;stroke-width:0;stroke-linecap:butt;stroke-linejoin:round;stroke-miterlimit:3.3;stroke-dasharray:none;stroke-opacity:1;paint-order:normal"
         d="M 28.474781,16.451851 -2.1543749,30.268967 -2.1181569,40.90378 Z"
         id="path4" />
      <path
         style="display:inline;opacity:0.4;fill:#f7931a;fill-opacity:1;stroke:#000000;stroke-width:0;stroke-linecap:butt;stroke-linejoin:round;stroke-miterlimit:3.3;stroke-dasharray:none;stroke-opacity:1;paint-order:normal"
         d="M 28.963375,16.427819 -2.3897937,58.053283 -2.7735606,87.62098 Z"
         id="path5" />
    </g>
  </g>
  <g
     transform="translate(-11.694428,-6.9948783)"
     style="display:inline">
    <rect
       style="display:inline;fill:#ffffff;stroke:#000000;stroke-width:0.453158;stroke-linejoin:round;stroke-dasharray:none;stroke-opacity:1;paint-order:normal"
       id="rect307"
       width="8.339776"
       height="6.4164"
       x="24.762302"
       y="22.344303"
       ry="0" />
    <rect
       style="display:inline;fill:#000000;stroke:#000000;stroke-width:0.409071;stroke-linejoin:round;stroke-dasharray:none;stroke-opacity:1;paint-order:normal"
       id="rect1102"
       width="10.588191"
       height="1.6825172"
       x="23.642668"
       y="28.770376" />
    <path
       style="display:inline;fill:#ffffff;stroke:#000000;stroke-width:0.463613;stroke-linecap:round;stroke-linejoin:round;stroke-dasharray:none;stroke-opacity:1;paint-order:normal"
       d="m 24.006086,23.409519 9.66712,0.01501"
       id="path1158" />
    <path
       style="display:inline;fill:#ffffff;stroke:#000000;stroke-width:0.463613;stroke-linecap:butt;stroke-linejoin:round;stroke-dasharray:none;stroke-opacity:1;paint-order:normal"
       d="m 24.009972,23.873632 9.647792,-0.0995"
       id="path1160" />
    <path
       style="display:inline;fill:#ffffff;stroke:#000000;stroke-width:0.946151;stroke-linecap:round;stroke-linejoin:round;stroke-dasharray:none;stroke-opacity:1;paint-order:normal"
       d="m 24.390522,24.178992 8.892527,4.54e-4"
       id="path1258" />
    <rect
       style="display:inline;fill:#ffffff;stroke:#000000;stroke-width:0.445774;stroke-linecap:round;stroke-linejoin:round;stroke-dasharray:none;stroke-opacity:1;paint-order:normal"
       id="rect1302"
       width="4.152565"
       height="1.2346774"
       x="26.819813"
       y="26.625462" />
    <rect
       style="display:inline;fill:#ffffff;stroke:#000000;stroke-width:0.444029;stroke-linecap:round;stroke-linejoin:round;stroke-dasharray:none;stroke-opacity:1;paint-order:normal"
       id="rect1331"
       width="1.6034751"
       height="1.1708666"
       x="28.174551"
       y="26.639946" />
    <path
       style="display:inline;fill:#000000;stroke:#000000;stroke-width:0.473074;stroke-linecap:round;stroke-linejoin:round;stroke-dasharray:none;stroke-opacity:1;paint-order:normal"
       d="m 27.626391,22.319755 0.843371,-1.098808 0.196847,-0.795228 0.01828,-0.745516 0.24595,-0.195885 0.257443,0.212173 0.02516,0.572869 0.133727,0.882892 0.817774,1.09638 c -0.866454,-0.115318 -1.521353,-0.328672 -2.53856,0.07112 z"
       id="path1260" />
    <path
       style="display:inline;fill:#ffffff;stroke:#000000;stroke-width:1.43933;stroke-linecap:butt;stroke-linejoin:round;stroke-dasharray:none;stroke-opacity:1;paint-order:normal"
       d="m 24.081703,31.495243 9.612288,-0.0093"
       id="path1364" />
    <path
       style="display:inline;fill:#ffffff;stroke:#000000;stroke-width:0.880364;stroke-linecap:round;stroke-linejoin:round;stroke-dasharray:none;stroke-opacity:1;paint-order:normal"
       d="m 24.271836,30.713108 9.250367,0.05656"
       id="path1362" />
    <path
       style="display:inline;fill:#ffffff;stroke:#000000;stroke-width:1.03548;stroke-linecap:round;stroke-linejoin:round;stroke-dasharray:none;stroke-opacity:1;paint-order:normal"
       d="m 24.276935,32.547587 9.186147,5.2e-4"
       id="path1366" />
    <rect
       style="display:inline;fill:#ffffff;stroke:#000000;stroke-width:0.458672;stroke-linejoin:round;stroke-dasharray:none;stroke-opacity:1;paint-order:normal"
       id="rect1368"
       width="8.3342619"
       height="6.5778422"
       x="24.742165"
       y="32.836575"
       ry="0" />
    <path
       style="display:inline;fill:#000000;stroke:#000000;stroke-width:1.41057;stroke-linecap:butt;stroke-linejoin:miter;stroke-miterlimit:3.3;stroke-dasharray:none;stroke-opacity:1;paint-order:fill markers stroke"
       d="M 23.622526,39.866272 H 34.065074"
       id="path1624" />
    <path
       style="display:inline;fill:#ffffff;stroke:#000000;stroke-width:1.00967;stroke-linecap:round;stroke-linejoin:round;stroke-dasharray:none;stroke-opacity:1;paint-order:normal"
       d="m 23.548346,39.43046 10.47123,-0.0043"
       id="path1626" />
    <path
       style="display:inline;fill:#000000;stroke:#000000;stroke-width:1.85496;stroke-linecap:round;stroke-linejoin:miter;stroke-miterlimit:3.3;stroke-dasharray:none;stroke-opacity:1;paint-order:fill markers stroke"
       d="m 24.565076,40.503903 h 8.572161"
       id="path1628" />
  </g>
  <g
     style="display:inline"
     transform="matrix(0.09330336,0,0,0.09330336,-12.826726,-22.827301)">
    <path
       d="m 352.64,357.25 c -4.274,17.143 -21.637,27.576 -38.782,23.301 -17.138,-4.274 -27.571,-21.638 -23.295,-38.78 4.272,-17.145 21.635,-27.579 38.775,-23.305 17.144,4.274 27.576,21.64 23.302,38.784 z"
       fill="#f7931a"
       id="path2668-6" />
    <path
       d="m 335.71,344.95 c 0.637,-4.258 -2.605,-6.547 -7.038,-8.074 l 1.438,-5.768 -3.511,-0.875 -1.4,5.616 c -0.923,-0.23 -1.871,-0.447 -2.813,-0.662 l 1.41,-5.653 -3.509,-0.875 -1.439,5.766 c -0.764,-0.174 -1.514,-0.346 -2.242,-0.527 l 0.004,-0.018 -4.842,-1.209 -0.934,3.75 c 0,0 2.605,0.597 2.55,0.634 1.422,0.355 1.679,1.296 1.636,2.042 l -1.638,6.571 c 0.098,0.025 0.225,0.061 0.365,0.117 -0.117,-0.029 -0.242,-0.061 -0.371,-0.092 l -2.296,9.205 c -0.174,0.432 -0.615,1.08 -1.609,0.834 0.035,0.051 -2.552,-0.637 -2.552,-0.637 l -1.743,4.019 4.569,1.139 c 0.85,0.213 1.683,0.436 2.503,0.646 l -1.453,5.834 3.507,0.875 1.439,-5.772 c 0.958,0.26 1.888,0.5 2.798,0.726 l -1.434,5.745 3.511,0.875 1.453,-5.823 c 5.987,1.133 10.489,0.676 12.384,-4.739 1.527,-4.36 -0.076,-6.875 -3.226,-8.515 2.294,-0.529 4.022,-2.038 4.483,-5.155 z m -8.022,11.249 c -1.085,4.36 -8.426,2.003 -10.806,1.412 l 1.928,-7.729 c 2.38,0.594 10.012,1.77 8.878,6.317 z m 1.086,-11.312 c -0.99,3.966 -7.1,1.951 -9.082,1.457 l 1.748,-7.01 c 1.982,0.494 8.365,1.416 7.334,5.553 z"
       fill="#ffffff"
       id="path2670-7" />
  </g>
</svg>
